<?xml version="1.0" standalone="no"?>
<!DOCTYPE svg PUBLIC "-//W3C//DTD SVG 20010904//EN"
 "http://www.w3.org/TR/2001/REC-SVG-20010904/DTD/svg10.dtd">
<svg version="1.0" xmlns="http://www.w3.org/2000/svg"
 width="123.000000pt" height="118.000000pt" viewBox="0 0 123.000000 118.000000"
 preserveAspectRatio="xMidYMid meet">

<g transform="translate(0.000000,118.000000) scale(0.100000,-0.100000)"
fill="#000000" stroke="none">
<path d="M309 1137 c25 -26 47 -47 49 -47 8 0 -61 75 -77 84 -9 5 4 -11 28
-37z"/>
<path d="M1093 1143 c-16 -6 -17 -45 -1 -61 7 -7 24 -12 38 -12 32 0 50 17 50
46 0 30 -46 44 -87 27z"/>
<path d="M130 1105 c-13 -14 -21 -27 -18 -30 2 -3 14 9 27 25 26 37 23 39 -9
5z"/>
<path d="M775 1070 c-3 -5 1 -10 10 -10 9 0 13 5 10 10 -3 6 -8 10 -10 10 -2
0 -7 -4 -10 -10z"/>
<path d="M937 1048 c-8 -20 -20 -39 -26 -42 -6 -4 -11 -12 -11 -18 0 -6 10 2
22 18 13 16 28 34 35 39 8 6 9 15 4 24 -7 11 -13 6 -24 -21z"/>
<path d="M568 1063 c6 -2 18 -2 25 0 6 3 1 5 -13 5 -14 0 -19 -2 -12 -5z"/>
<path d="M605 1061 c-14 -12 -140 -32 -159 -25 -9 3 -16 1 -16 -5 0 -6 -5 -11
-11 -11 -21 0 -155 -83 -182 -114 -22 -24 -26 -26 -17 -7 9 17 9 26 1 34 -13
13 -15 30 -2 23 16 -10 41 5 41 24 0 21 -28 34 -44 21 -6 -5 -28 -11 -49 -13
-34 -4 -39 -1 -64 34 -14 21 -28 36 -31 33 -3 -3 5 -16 18 -30 14 -15 23 -36
22 -54 0 -24 3 -29 16 -24 9 4 20 11 23 16 12 17 42 -1 34 -21 -12 -31 -10
-37 8 -34 16 3 16 0 5 -17 -7 -12 -26 -28 -43 -36 -29 -14 -29 -15 -7 -21 12
-4 22 -8 22 -11 0 -7 -30 -63 -34 -63 -2 0 -23 9 -47 20 -48 21 -79 25 -79 10
0 -5 7 -10 15 -10 29 0 127 -54 134 -74 19 -49 -20 -91 -76 -83 -21 3 -45 8
-54 11 -13 6 -16 -6 -18 -76 l-2 -83 25 24 c13 13 29 39 34 60 l10 36 1 -44
c1 -25 8 -73 17 -108 11 -46 13 -77 7 -115 -7 -47 -11 -53 -33 -54 -55 -2 -63
-7 -20 -13 37 -5 46 -10 48 -28 8 -55 31 -10 32 62 1 37 2 39 15 21 17 -22 20
-50 5 -41 -5 3 -10 1 -10 -4 0 -6 9 -11 21 -11 12 0 46 -23 76 -50 30 -28 86
-65 124 -83 l69 -32 0 -42 c0 -24 5 -43 10 -43 6 0 10 18 10 41 l0 41 33 -9
c17 -4 98 -8 179 -8 l147 0 3 -29 c2 -16 9 -31 16 -34 7 -2 11 4 10 15 -3 42
3 73 15 73 29 0 141 63 186 105 37 35 57 46 78 45 15 -1 31 -1 36 0 4 1 11 3
16 4 21 3 23 16 2 16 l-23 0 7 144 c7 142 -6 306 -25 306 -4 0 -11 10 -14 23
-14 51 -68 118 -139 170 -110 81 -176 110 -292 125 -38 5 -59 12 -57 20 2 14
-10 16 -23 3z m-355 -82 c0 -5 -10 -9 -21 -9 -18 0 -19 2 -9 15 12 15 30 12
30 -6z m40 -179 c0 -15 -38 -32 -45 -20 -3 5 -3 15 0 20 8 13 45 13 45 0z m70
-29 c15 -29 12 -38 -11 -44 -17 -5 -20 -11 -16 -28 7 -27 -8 -49 -34 -49 -17
0 -25 21 -20 52 0 4 -10 3 -22 -1 -18 -7 -26 -5 -35 10 -17 26 -17 26 36 53
57 30 88 32 102 7z m208 -59 c2 -13 -2 -22 -10 -22 -20 0 -37 20 -31 37 8 21
38 11 41 -15z m160 11 c-4 -22 -48 -31 -48 -10 0 19 10 27 32 27 13 0 18 -6
16 -17z m-288 -129 c0 -31 -2 -35 -15 -24 -16 13 -20 42 -8 53 15 15 23 5 23
-29z m97 20 c3 -8 1 -20 -4 -25 -7 -7 -12 -2 -15 15 -6 28 9 36 19 10z m273
-9 c0 -8 -4 -17 -10 -20 -6 -4 -10 5 -10 20 0 15 4 24 10 20 6 -3 10 -12 10
-20z m-180 0 c13 -16 6 -65 -10 -65 -15 0 -32 39 -25 60 8 24 18 25 35 5z
m100 8 c0 -5 -4 -15 -10 -23 -11 -18 -25 -7 -17 15 6 15 27 21 27 8z m-686
-47 c-3 -15 -8 -25 -11 -23 -2 3 -1 17 3 31 3 15 8 25 11 23 2 -3 1 -17 -3
-31z m964 -3 c65 -48 88 -153 46 -209 -56 -76 -128 -92 -214 -47 -47 24 -58
35 -75 76 -17 44 -18 51 -5 89 8 23 21 43 28 46 16 5 42 -57 46 -116 5 -58 21
-64 41 -16 l15 38 39 -38 c60 -58 76 -35 44 64 -11 35 -32 67 -62 97 l-45 46
57 -5 c36 -3 68 -12 85 -25z m-638 14 c0 -2 -18 -24 -41 -48 -77 -83 -99 -157
-43 -146 20 4 27 -1 38 -27 7 -17 20 -37 29 -45 15 -12 19 -9 32 22 8 20 15
43 15 52 0 9 13 42 30 75 33 65 51 70 69 18 15 -43 14 -74 -5 -115 -41 -84
-153 -110 -232 -53 -52 37 -66 63 -65 121 1 51 21 89 61 115 31 20 112 42 112
31z m488 -11 c58 -31 112 -114 112 -174 l0 -26 -33 32 c-37 36 -54 40 -73 15
-12 -17 -13 -16 -14 7 0 14 -14 49 -30 79 -23 41 -27 57 -19 68 14 17 23 16
57 -1z m-418 -16 c19 -10 18 -13 -14 -73 -19 -34 -40 -81 -47 -105 -14 -49
-30 -50 -44 -4 -7 26 -14 32 -37 32 -17 0 -28 5 -28 13 0 20 51 88 89 120 35
29 52 33 81 17z m686 -276 c-3 -8 -10 -13 -16 -9 -6 3 -5 16 3 32 9 21 13 23
15 9 2 -9 1 -24 -2 -32z"/>
<path d="M75 929 c-45 -5 -46 -6 -12 -7 33 -2 37 -5 37 -28 0 -16 5 -24 13
-21 6 2 11 11 9 21 -2 9 4 16 12 16 22 0 29 17 8 21 -9 3 -39 1 -67 -2z"/>
<path d="M50 869 c-12 -9 -12 -10 3 -5 25 8 46 -5 22 -14 -10 -4 -14 -9 -9
-13 16 -9 35 8 28 26 -7 19 -22 21 -44 6z"/>
<path d="M14 727 c3 -10 6 -23 6 -28 0 -5 9 -9 21 -9 14 0 19 5 17 18 -2 9
-10 17 -18 17 -8 0 -19 5 -23 10 -5 6 -6 2 -3 -8z"/>
<path d="M73 694 c-3 -9 0 -20 8 -25 9 -5 16 -3 20 8 5 14 7 13 11 -5 3 -11 1
-23 -6 -26 -6 -2 -3 -5 6 -5 14 -1 37 36 26 43 -1 1 -16 7 -31 14 -23 10 -29
9 -34 -4z"/>
</g>
</svg>
