<?xml version="1.0" standalone="no"?>
<!DOCTYPE svg PUBLIC "-//W3C//DTD SVG 20010904//EN"
 "http://www.w3.org/TR/2001/REC-SVG-20010904/DTD/svg10.dtd">
<svg version="1.0" xmlns="http://www.w3.org/2000/svg"
 width="97.000000pt" height="78.000000pt" viewBox="0 0 97.000000 78.000000"
 preserveAspectRatio="xMidYMid meet">

<g transform="translate(0.000000,78.000000) scale(0.100000,-0.100000)"
fill="#000000" stroke="none">
<path d="M0 390 l0 -390 485 0 485 0 0 390 0 390 -485 0 -485 0 0 -390z m591
284 c30 -9 75 -27 102 -42 46 -24 47 -27 47 -71 0 -65 -24 -154 -63 -230 -33
-66 -130 -174 -180 -200 -36 -19 -63 -5 -143 75 -93 95 -154 236 -154 358 0
39 3 44 42 66 103 58 242 76 349 44z"/>
<path d="M336 610 c-27 -11 -53 -23 -58 -28 -4 -4 37 -41 92 -80 l100 -72 101
72 c91 66 98 74 82 86 -60 43 -231 55 -317 22z"/>
<path d="M260 523 c0 -83 85 -242 165 -307 l45 -37 35 28 c82 64 156 192 171
296 l6 42 -106 -105 -106 -105 -105 105 c-81 81 -105 100 -105 83z"/>
</g>
</svg>
