<?xml version="1.0" standalone="no"?>
<!DOCTYPE svg PUBLIC "-//W3C//DTD SVG 20010904//EN"
 "http://www.w3.org/TR/2001/REC-SVG-20010904/DTD/svg10.dtd">
<svg version="1.0" xmlns="http://www.w3.org/2000/svg"
 width="287.000000pt" height="287.000000pt" viewBox="0 0 287.000000 287.000000"
 preserveAspectRatio="xMidYMid meet">

<g transform="translate(0.000000,287.000000) scale(0.100000,-0.100000)"
fill="#000000" stroke="none">
<path d="M1105 2537 c-3 -6 -16 -68 -30 -137 -22 -108 -23 -126 -10 -139 23
-24 41 2 54 81 22 130 17 120 59 112 69 -12 127 -50 143 -93 8 -19 5 -29 -12
-47 -36 -38 -4 -87 33 -50 36 36 326 25 445 -17 52 -18 52 -18 118 106 26 48
49 87 51 87 2 0 20 -9 41 -21 77 -43 99 -66 122 -128 16 -45 27 -61 40 -61 29
0 31 21 10 87 -19 58 -22 61 -112 120 -51 34 -107 69 -126 78 -33 17 -35 17
-48 -1 -12 -17 -11 -21 5 -34 17 -14 17 -18 4 -50 -7 -19 -27 -58 -44 -87 -30
-49 -32 -51 -53 -37 -21 13 -100 28 -229 41 -27 3 -75 0 -107 -7 -66 -14 -72
-13 -76 14 -7 41 -56 89 -122 119 -36 16 -76 30 -89 31 -12 0 -25 8 -27 18 -7
21 -34 32 -40 15z"/>
<path d="M955 2203 c-114 -115 -206 -285 -240 -443 -15 -71 -43 -110 -93 -131
-114 -47 -194 -101 -301 -204 -113 -108 -136 -149 -198 -342 l-26 -83 19 -57
c12 -38 35 -77 67 -113 27 -30 62 -70 78 -87 16 -18 29 -43 29 -56 0 -27 43
-71 80 -82 14 -4 51 -18 82 -31 34 -14 77 -24 107 -24 28 0 60 -4 73 -9 30
-12 155 -46 243 -67 65 -15 125 -24 250 -39 28 -4 59 -10 70 -15 81 -36 109
-44 180 -53 44 -5 145 -10 225 -11 l145 -1 0 25 0 25 -140 7 c-182 8 -288 18
-300 28 -32 25 -138 51 -285 69 -41 6 -97 16 -125 25 -27 8 -70 17 -95 21 -25
4 -54 13 -65 20 -20 12 -52 19 -160 34 -56 8 -157 40 -172 54 -3 4 -14 7 -24
7 -11 0 -22 13 -30 38 -7 22 -41 67 -84 112 -46 47 -81 94 -95 127 -21 51 -22
53 -5 105 10 29 28 72 41 95 13 23 24 48 24 56 0 18 28 75 41 83 6 3 23 24 39
45 42 59 188 173 266 209 165 75 156 62 223 305 16 61 113 229 168 291 89 102
89 102 72 120 -15 14 -22 9 -84 -53z"/>
<path d="M1617 1923 c-13 -12 -7 -94 9 -144 12 -35 21 -49 35 -49 22 0 34 37
24 70 -5 16 -1 26 14 36 29 21 26 38 -10 68 -30 25 -59 33 -72 19z"/>
<path d="M940 1900 c0 -13 10 -24 25 -30 20 -7 25 -17 25 -42 1 -37 20 -68 41
-68 18 0 59 44 59 61 -1 20 -56 78 -86 89 -41 16 -64 12 -64 -10z"/>
<path d="M2340 1902 c0 -10 17 -29 37 -43 61 -40 213 -275 213 -330 0 -10 12
-68 26 -127 29 -117 40 -188 54 -362 24 -285 24 -273 -5 -383 -16 -56 -34
-115 -42 -131 -13 -25 -13 -30 1 -44 15 -15 17 -15 32 0 9 8 32 62 51 119 40
115 52 222 35 291 -6 24 -12 77 -12 118 -1 84 -19 202 -56 364 -14 59 -28 127
-31 150 -10 73 -59 165 -146 273 -84 106 -157 154 -157 105z"/>
<path d="M915 1502 c-5 -5 -36 -18 -69 -27 -32 -10 -72 -29 -90 -41 -17 -13
-46 -34 -63 -46 -49 -34 -63 -73 -63 -173 0 -110 14 -135 95 -177 111 -56 157
-62 516 -65 356 -2 374 0 474 57 70 40 119 95 140 159 22 66 14 95 -33 124
-20 13 -81 52 -134 86 -53 35 -114 67 -135 73 -38 10 -240 29 -300 28 -134 -3
-216 -1 -268 5 -35 4 -64 3 -70 -3z m210 -66 c55 0 111 1 125 2 64 3 236 -10
244 -19 6 -5 24 -9 40 -9 35 0 78 -24 145 -80 25 -21 56 -41 67 -44 38 -12 56
-40 49 -79 -13 -66 -40 -95 -130 -139 l-84 -40 -327 1 c-180 1 -331 4 -335 7
-4 2 -33 9 -64 15 -57 10 -143 50 -157 72 -4 7 -8 50 -8 96 l0 84 53 52 c56
57 103 76 189 79 26 1 50 5 54 9 5 4 15 4 23 0 9 -4 61 -8 116 -7z"/>
<path d="M935 1366 c-19 -29 -31 -127 -21 -179 5 -29 14 -39 53 -57 49 -23
101 -23 129 1 8 6 32 38 54 71 30 45 40 70 40 99 0 22 -3 39 -7 39 -5 1 -28 5
-53 11 -25 6 -67 14 -95 18 -27 4 -58 11 -67 15 -12 5 -21 0 -33 -18z m147
-67 c9 -5 27 -9 39 -9 21 0 21 -1 6 -18 -10 -10 -17 -22 -17 -25 0 -4 -10 -23
-22 -42 -23 -35 -45 -42 -95 -29 -21 6 -23 12 -23 74 l0 68 48 -6 c26 -2 55
-9 64 -13z"/>
<path d="M1336 1358 c-2 -7 -8 -31 -14 -53 -6 -22 -17 -58 -25 -80 -22 -58 -7
-78 69 -87 33 -5 66 -11 74 -15 23 -10 33 -10 55 0 26 10 75 87 75 115 0 27
-50 65 -122 92 -32 12 -60 26 -63 31 -9 13 -45 11 -49 -3z m59 -78 c3 -5 15
-10 26 -10 11 0 38 -9 60 -20 l40 -21 -27 -34 c-20 -27 -30 -33 -40 -24 -7 5
-38 13 -68 16 -31 3 -56 10 -56 15 0 16 40 88 50 88 5 0 12 -4 15 -10z"/>
<path d="M1946 802 c-17 -33 -119 -92 -159 -92 -33 0 -63 -28 -47 -44 33 -33
169 15 233 82 42 43 46 75 10 80 -16 2 -26 -5 -37 -26z"/>
</g>
</svg>
